<svg xmlns="http://www.w3.org/2000/svg" enable-background="new 0 0 66 66" viewBox="0 0 66 66"><path d="M1.6,50.7v4.5c0,0.5,0.4,1,1,1H31c0.5,0,1-0.4,1-1v-4.5c0-0.5-0.4-1-1-1h-2.6v-0.8c0-1.8-1.3-3.3-3-3.6l-4-17.4h3.3 c1.8,0,3.2-1.5,3.2-3.2s-1.5-3.2-3.2-3.2h-3.5v-4.2c2.6-1.5,4.3-4.3,4.3-7.4c0-4.8-3.9-8.6-8.6-8.6C12,1,8.2,4.9,8.2,9.6 c0,3.2,1.7,6,4.3,7.5v4.2H8.9c-1.8,0-3.2,1.5-3.2,3.2s1.5,3.2,3.2,3.2h3.3l-4,17.4c-1.7,0.3-3,1.8-3,3.6v0.8H2.6 C2.1,49.7,1.6,50.1,1.6,50.7z M10.1,9.6c0-3.7,3-6.7,6.7-6.7c3.7,0,6.7,3,6.7,6.7s-3,6.7-6.7,6.7C13.1,16.3,10.1,13.3,10.1,9.6z M14.4,17.9c0.8,0.2,1.6,0.3,2.4,0.3c0.8,0,1.6-0.1,2.4-0.3v3.4h-4.8V17.9z M7.6,24.5c0-0.7,0.6-1.3,1.3-1.3c5.9,0,10.1,0,15.7,0 c0.7,0,1.3,0.6,1.3,1.3s-0.6,1.3-1.3,1.3c-0.4,0-15.4,0-15.7,0C8.2,25.8,7.6,25.3,7.6,24.5z M19.3,27.8l4,17.4H10.2l4-17.4H19.3z M7.1,48.8c0-1,0.8-1.8,1.8-1.8H9c0,0,0,0,0,0c0.2,0,15.7,0,15.6,0c0,0,0,0,0,0h0.1c1,0,1.8,0.8,1.8,1.8v0.8H7.1V48.8z M3.6,51.6 c5.7,0,17.5,0,26.5,0v2.6H3.6V51.6z"/><path d="M64.4,64v-5.2c0-0.5-0.4-1-1-1h-3.1v-1.1c0-2.3-1.8-4.1-4.1-4.1h-3.5l4.2-20.2c1.6-0.3,2.8-1.8,2.8-3.5 c0-2-1.6-3.6-3.6-3.6h-3.1L55,16c0.1-0.3,0-0.6-0.2-0.8c-0.2-0.2-0.5-0.4-0.8-0.4h-6V6.6h3.8c0.5,0,1-0.4,1-1s-0.4-1-1-1h-3.8V2 c0-0.5-0.4-1-1-1s-1,0.4-1,1v2.7h-3.8c-0.5,0-1,0.4-1,1s0.4,1,1,1h3.8v8.2h-6c-0.3,0-0.6,0.1-0.8,0.4c-0.2,0.2-0.3,0.5-0.2,0.8 l1.9,9.4h-3.1c-2,0-3.6,1.6-3.6,3.6c0,1.7,1.2,3.2,2.8,3.5l4.2,20.2h-3.5c-2.3,0-4.1,1.8-4.1,4.1v1.1h-3.1c-0.5,0-1,0.4-1,1V64 c0,0.5,0.4,1,1,1h32.5C63.9,65,64.4,64.6,64.4,64z M41.4,16.7h11.5l-1.8,8.6h-7.9L41.4,16.7z M36.5,28.9c0-0.9,0.7-1.6,1.6-1.6 c15.4,0,12,0,18,0c0.9,0,1.6,0.7,1.6,1.6c0,0.9-0.7,1.6-1.6,1.6h-0.1c0,0,0,0,0,0H38.2c0,0,0,0,0,0h-0.1 C37.2,30.6,36.5,29.8,36.5,28.9z M39.4,32.5h15.5l-4.2,20.2h-7.1L39.4,32.5z M35.9,56.8c0-1.2,1-2.2,2.2-2.2c5.6,0,12.6,0,18.2,0 c1.2,0,2.2,1,2.2,2.2v1.1H35.9V56.8z M62.4,63.1H31.8v-3.3c7.7,0,24.2,0,30.6,0V63.1z"/></svg>